{"title":"Fatmagul E87-89 DVDRip GR Subtitles","uid":8570270,"size":1229320304,"categoryP":"video","categoryS":"tv_shows","magnet":"?xt=urn:btih:8d44652f6e6c41b47615790bf53deaeb42d4adc4&amp;dn=Fatmagul+E87-89+DVDRip+GR+Subtitles&amp;tr=udp%3A%2F%2Ftracker.openbittorrent.com%3A80&amp;tr=udp%3A%2F%2Fopen.demonii.com%3A1337&amp;tr=udp%3A%2F%2Ftracker.coppersurfer.tk%3A6969&amp;tr=udp%3A%2F%2Fexodus.desync.com%3A6969","seeders":1,"leechers":0,"uploader":"anniel20","files":-1,"time":1371136147,"description":"Format                         : AVI\nFormat/Info                    : Audio Video Interleave\nFormat profile                 : OpenDML\nFile size                      : 1.14 GiB\nDuration                       : 2h 15mn\nOverall bit rate               : 1 208 Kbps\nWriting application            : Lavf52.94.0\n\nVideo\nID                             : 0\nFormat                         : MPEG-4 Visual\nFormat profile                 : Simple@L3\nFormat settings, BVOP          : No\nFormat settings, QPel          : No\nFormat settings, GMC           : No warppoints\nFormat settings, Matrix        : Default (H.263)\nCodec ID                       : XVID\nCodec ID/Hint                  : XviD\nDuration                       : 2h 15mn\nBit rate                       : 1 000 Kbps\nWidth                          : 640 pixels\nHeight                         : 480 pixels\nDisplay aspect ratio           : 4:3\nFrame rate                     : 25.000 fps\nColor space                    : YUV\nChroma subsampling             : 4:2:0\nBit depth                      : 8 bits\nScan type                      : Progressive\nCompression mode               : Lossy\nBits/(Pixel*Frame)             : 0.130\nStream size                    : 970 MiB (83%)\nWriting library                : XviD 1.2.1 (UTC 2008-12-04)\n\nAudio\nID                             : 1\nFormat                         : MPEG Audio\nFormat version                 : Version 1\nFormat profile                 : Layer 3\nMode                           : Joint stereo\nMode extension                 : MS Stereo\nCodec ID                       : 55\nCodec ID/Hint                  : MP3\nDuration                       : 2h 15mn\nBit rate mode                  : Constant\nBit rate                       : 192 Kbps\nChannel(s)                     : 2 channels\nSampling rate                  : 48.0 KHz\nCompression mode               : Lossy\nStream size                    : 186 MiB (16%)\nAlignment                      : Aligned on interleaves\nInterleave, duration           : 24 ms (0.60 video frame)\nWriting library                : LAME3.98.4","torrent":{"xt":"urn:btih:8d44652f6e6c41b47615790bf53deaeb42d4adc4","amp;dn":"Fatmagul+E87-89+DVDRip+GR+Subtitles","amp;tr":["udp%3A%2F%2Ftracker.openbittorrent.com%3A80","udp%3A%2F%2Fopen.demonii.com%3A1337","udp%3A%2F%2Ftracker.coppersurfer.tk%3A6969","udp%3A%2F%2Fexodus.desync.com%3A6969"],"infoHash":"8d44652f6e6c41b47615790bf53deaeb42d4adc4","infoHashBuffer":{"type":"Buffer","data":[141,68,101,47,110,108,65,180,118,21,121,11,245,61,234,235,66,212,173,196]},"announce":[],"urlList":[]}}